<?xml version="1.0" standalone="no"?>
<!DOCTYPE svg PUBLIC "-//W3C//DTD SVG 20010904//EN"
 "http://www.w3.org/TR/2001/REC-SVG-20010904/DTD/svg10.dtd">
<svg version="1.0" xmlns="http://www.w3.org/2000/svg"
 width="184.000000pt" height="184.000000pt" viewBox="0 0 184.000000 184.000000"
 preserveAspectRatio="xMidYMid meet">
<metadata>
Created by potrace 1.14, written by Peter Selinger 2001-2017
</metadata>
<g transform="translate(0.000000,184.000000) scale(0.100000,-0.100000)"
fill="#000000" stroke="none">
<path d="M0 920 l0 -920 96 0 c61 0 93 4 89 10 -3 6 1 10 9 10 9 0 16 -4 16
-10 0 -5 6 -10 13 -10 19 0 40 42 35 70 -2 18 4 25 28 34 16 6 41 21 54 34 13
12 32 22 43 22 11 0 17 5 14 13 -22 53 -22 53 -2 37 11 -9 16 -10 11 -2 -7 13
15 42 32 42 6 0 8 10 5 23 -4 18 -3 19 6 7 10 -14 16 -7 12 13 -1 5 3 6 8 3
14 -9 29 16 29 49 0 16 5 31 11 33 7 2 11 29 11 68 0 51 -3 64 -15 64 -9 0
-18 6 -21 14 -3 8 -18 16 -33 19 -16 3 -28 12 -28 21 0 12 5 13 21 5 18 -9 18
-7 -3 10 -24 21 -47 28 -36 12 8 -13 -10 -22 -29 -15 -9 3 -16 16 -16 27 0 16
3 18 12 9 17 -17 31 -15 25 2 -4 9 12 3 40 -14 25 -16 71 -35 102 -41 31 -7
64 -16 74 -21 18 -9 18 -11 2 -28 -10 -12 -19 -39 -20 -69 -3 -63 -33 -153
-47 -145 -7 4 -8 2 -4 -4 11 -19 -12 -51 -121 -168 -56 -61 -103 -114 -103
-118 0 -9 559 -1 590 8 19 6 21 5 10 -3 -11 -8 -3 -11 37 -11 45 0 53 3 59 22
l7 23 8 -23 c6 -15 17 -22 33 -22 16 0 24 5 21 13 -3 8 6 13 25 14 20 1 33 -3
37 -12 4 -13 56 -15 349 -15 l344 0 0 920 0 920 -352 -2 c-276 -2 -352 -6
-351 -15 2 -8 -9 -13 -28 -13 -25 0 -30 -3 -25 -16 10 -27 -11 -44 -41 -33
-32 12 -41 4 -21 -18 9 -10 14 -23 12 -28 -3 -6 20 -19 50 -29 30 -11 57 -25
60 -33 5 -11 1 -11 -16 -2 -13 7 -40 9 -69 5 -27 -4 -50 -3 -50 1 -1 4 -3 18
-4 29 -5 51 -16 74 -34 74 -11 0 -21 5 -23 12 -5 14 -38 20 -38 7 0 -5 -3 -8
-7 -8 -18 3 -33 -2 -33 -10 0 -6 9 -8 21 -6 17 4 19 0 15 -25 -2 -17 0 -30 5
-30 19 0 8 -16 -19 -26 -35 -13 -54 -2 -70 41 -8 24 -11 26 -11 9 -1 -24 -52
-51 -72 -38 -8 4 -10 3 -5 -4 4 -7 -15 -23 -51 -41 -32 -16 -83 -48 -113 -70
-30 -22 -84 -60 -120 -85 -70 -47 -112 -89 -152 -148 -14 -21 -28 -35 -33 -30
-5 4 -5 2 -1 -5 4 -7 -7 -36 -23 -65 -42 -74 -120 -265 -128 -312 -6 -38 -6
-38 -19 -15 -7 13 -13 19 -14 12 0 -18 31 -84 51 -108 9 -11 20 -38 24 -60 l7
-39 -46 48 c-25 26 -46 54 -46 62 0 8 -4 14 -10 14 -5 0 -10 20 -10 45 0 38 4
47 22 55 13 5 18 9 13 9 -12 1 -16 71 -4 71 5 0 11 22 15 50 4 32 11 50 20 50
8 0 14 10 14 23 0 13 3 17 8 11 5 -9 11 -8 20 2 7 8 8 14 2 14 -13 0 -13 47 0
55 6 4 8 10 5 15 -3 5 6 17 20 28 16 13 21 22 13 24 -9 3 -8 9 5 22 9 10 17
30 17 46 0 19 6 31 18 34 18 6 48 68 46 93 -1 7 2 10 7 7 5 -3 9 1 9 8 0 9 3
9 10 -2 8 -12 10 -11 10 6 0 14 10 26 30 34 18 7 27 17 23 24 -13 19 -10 53 3
53 7 0 11 -3 9 -7 -2 -3 0 -12 6 -20 7 -13 9 -13 9 0 0 13 1 13 10 0 8 -13 10
-13 10 2 0 9 -6 19 -12 21 -7 3 -3 6 10 6 26 1 29 19 5 36 -13 10 -11 11 15 7
18 -2 32 -10 32 -17 0 -7 6 -15 13 -18 9 -3 9 -8 -2 -23 -8 -10 -1 -5 15 11
32 34 83 38 85 7 0 -11 4 -8 12 9 7 14 18 33 26 43 9 10 10 16 2 16 -6 0 -11
-5 -11 -11 0 -5 -4 -7 -10 -4 -5 3 -10 -1 -10 -9 0 -10 -6 -13 -15 -10 -8 4
-15 15 -15 27 0 11 3 18 6 14 4 -3 13 1 22 9 12 13 16 13 23 2 7 -10 9 -8 9 5
0 10 7 25 15 33 8 8 12 20 9 27 -2 8 7 13 26 14 19 1 33 -3 36 -11 4 -11 13
-12 35 -6 17 5 29 5 29 -1 0 -5 5 -9 11 -9 5 0 8 4 5 8 -3 5 6 19 19 30 14 12
25 26 25 32 0 7 -143 10 -415 10 l-415 0 0 -920z m1144 861 c4 -5 -1 -8 -9 -7
-21 3 -31 16 -12 16 9 0 18 -4 21 -9z m-144 -88 c0 -11 -49 34 -50 45 0 7 11
1 25 -14 14 -15 25 -29 25 -31z m-60 16 c0 -11 -4 -18 -10 -14 -5 3 -7 12 -3
20 7 21 13 19 13 -6z m-135 -38 c-3 -6 -14 -11 -23 -11 -13 0 -13 2 4 14 21
15 30 14 19 -3z m528 -2 c-6 -6 -18 -6 -28 -3 -18 7 -18 8 1 14 23 9 39 1 27
-11z m-363 -20 c0 -11 -4 -17 -10 -14 -5 3 -10 13 -10 21 0 8 5 14 10 14 6 0
10 -9 10 -21z m155 -14 c32 -16 49 -40 58 -82 5 -21 1 -19 -36 12 -22 19 -46
35 -53 35 -8 0 -18 10 -25 21 -8 15 -8 19 0 15 6 -4 11 -2 11 3 0 14 6 14 45
-4z m55 5 c1 12 3 12 14 -2 7 -10 18 -18 25 -18 6 0 12 -8 12 -17 1 -10 3 -28
4 -40 1 -12 -2 -20 -6 -17 -5 3 -9 -5 -10 -18 -1 -18 -3 -16 -9 8 -4 18 -17
47 -29 67 -20 33 -31 68 -11 37 9 -13 10 -13 10 0z m-20 -126 c14 -43 -2 -120
-22 -107 -7 4 -8 8 -2 10 13 4 2 100 -15 131 -12 22 -11 23 7 13 11 -6 26 -27
32 -47z m89 -11 c1 27 18 20 30 -13 5 -16 7 -30 4 -30 -4 0 4 -11 17 -24 15
-17 21 -33 18 -50 -5 -24 -2 -26 29 -26 20 0 32 -4 28 -10 -3 -5 -2 -10 2 -10
5 0 13 -8 20 -18 10 -17 8 -18 -13 -14 -13 2 -22 8 -19 12 3 4 -4 10 -15 13
-11 3 -23 1 -26 -4 -3 -5 -10 -7 -15 -4 -5 4 -9 1 -9 -4 0 -6 -11 -11 -24 -11
-22 0 -23 3 -18 46 3 34 0 55 -15 82 -11 20 -19 43 -17 50 1 6 2 18 3 25 2 6
6 3 11 -8 7 -17 9 -17 9 -2z m-29 -107 c0 -30 -9 -56 -20 -56 -12 0 -18 46 -8
64 13 24 28 19 28 -8z m225 -122 c18 -44 19 -67 3 -62 -6 2 -12 15 -13 29 -1
13 -5 34 -9 47 -12 36 2 25 19 -14z m43 -103 c9 -9 19 -26 20 -36 2 -11 8 -21
13 -23 5 -2 9 -8 9 -14 0 -6 -7 -4 -17 3 -15 13 -16 11 -9 -14 6 -26 5 -27
-14 -17 -11 6 -18 15 -15 20 8 12 -5 61 -14 55 -4 -2 -17 3 -29 11 -18 12 -20
19 -12 35 9 16 15 17 31 8 11 -6 28 -18 37 -28z m65 -181 c39 -31 33 -44 -8
-18 -27 18 -35 29 -34 53 1 25 2 27 7 8 4 -12 19 -31 35 -43z m-1400 -57 c-3
-18 -9 -33 -14 -33 -12 0 -11 13 1 46 13 34 19 28 13 -13z m1447 -12 c0 -11 4
-21 10 -23 11 -3 -8 -78 -20 -78 -4 0 -17 -9 -30 -20 -13 -11 -18 -20 -12 -20
21 0 12 -15 -17 -30 -54 -28 -127 -95 -145 -133 -10 -20 -22 -35 -27 -31 -14
8 -11 -3 5 -18 10 -10 12 -27 6 -61 -4 -26 -3 -47 2 -47 5 0 3 -6 -4 -14 -11
-12 -14 -11 -21 3 -5 10 -6 7 -4 -11 3 -19 0 -28 -9 -28 -8 0 -14 -5 -14 -10
0 -6 3 -9 8 -9 22 4 34 -3 28 -16 -3 -8 -1 -15 4 -15 16 0 11 -22 -7 -36 -17
-12 -17 -13 3 -14 12 0 26 -11 34 -25 7 -14 17 -25 22 -25 5 0 6 -4 3 -10 -3
-5 -2 -10 3 -10 10 0 36 -50 34 -66 -1 -5 16 -18 38 -28 31 -13 40 -23 40 -42
0 -13 6 -24 13 -24 7 0 14 -14 15 -31 2 -27 0 -30 -12 -20 -8 7 -19 10 -24 7
-16 -10 -44 42 -36 67 3 12 3 19 -1 15 -5 -4 -14 0 -22 10 -12 16 -14 16 -27
-1 -12 -16 -15 -13 -35 33 -12 28 -19 56 -15 63 4 7 4 9 -1 5 -7 -7 -43 57
-48 86 -1 5 -14 21 -29 35 -26 25 -27 27 -11 63 8 21 19 36 23 33 5 -3 6 31 4
75 -4 55 -2 80 6 80 6 0 8 5 4 11 -8 14 84 108 162 164 75 54 97 86 92 131 -2
19 0 34 4 34 4 0 8 -9 8 -19z m37 -53 c-3 -8 -6 -5 -6 6 -1 11 2 17 5 13 3 -3
4 -12 1 -19z m-57 -78 c0 -5 -5 -10 -11 -10 -5 0 -7 5 -4 10 3 6 8 10 11 10 2
0 4 -4 4 -10z m-1374 -62 l29 -33 -32 29 c-31 28 -38 36 -30 36 2 0 16 -15 33
-32z m60 17 c18 -13 18 -14 -5 -8 -18 5 -22 3 -16 -7 5 -9 4 -11 -4 -6 -6 4
-9 11 -6 16 3 4 -1 11 -7 13 -9 4 -8 6 3 6 8 1 24 -6 35 -14z m822 -42 c-10
-2 -28 -2 -40 0 -13 2 -5 4 17 4 22 1 32 -1 23 -4z m-797 -36 c-10 -9 -11 -8
-5 6 3 10 9 15 12 12 3 -3 0 -11 -7 -18z m79 -29 c0 -4 -6 -8 -14 -8 -8 0 -16
-3 -19 -7 -2 -5 -2 -2 0 5 1 8 3 23 3 35 1 22 1 22 15 3 8 -11 15 -23 15 -28z
m725 22 c-20 -22 -31 -20 -22 5 4 8 14 15 23 15 16 0 16 -2 -1 -20z m-275 -50
c-8 -5 -22 -9 -30 -9 -10 0 -8 3 5 9 27 12 43 12 25 0z m123 -41 c-4 -4 -21
-10 -38 -14 l-30 -6 23 20 c21 18 64 19 45 0z m-93 -154 c74 -25 140 -45 146
-45 21 0 21 -22 2 -59 l-19 -36 27 -23 c21 -18 29 -20 40 -11 18 15 20 13 31
-31 7 -27 15 -36 35 -38 27 -3 62 -32 39 -32 -6 0 -11 -5 -11 -11 0 -5 5 -7
12 -3 7 4 8 3 4 -4 -4 -7 -2 -12 3 -12 6 0 11 5 11 11 0 6 6 9 14 6 18 -7 42
20 38 44 -2 13 2 16 16 12 17 -4 18 0 11 49 -4 29 -10 62 -14 73 -3 11 2 7 11
-10 10 -16 21 -46 25 -65 8 -34 8 -34 6 8 -3 42 8 56 20 26 7 -20 -12 -193
-23 -204 -5 -5 -28 -4 -53 2 -32 8 -56 25 -90 60 -74 79 -207 187 -326 265
-60 40 -105 73 -100 73 6 0 71 -20 145 -45z m-160 -45 c0 -5 -2 -10 -4 -10 -3
0 -8 5 -11 10 -3 6 -1 10 4 10 6 0 11 -4 11 -10z m378 -10 c-7 -11 -19 -20
-27 -20 -9 0 -6 7 9 20 13 11 25 20 27 20 2 0 -2 -9 -9 -20z m102 -27 c0 -9
-9 -11 -30 -6 -35 7 -40 -4 -7 -17 20 -8 19 -9 -9 -8 -29 2 -31 4 -21 25 8 17
18 23 39 21 15 -1 28 -8 28 -15z m-466 -88 c-4 -8 -8 -15 -10 -15 -2 0 -4 7
-4 15 0 8 4 15 10 15 5 0 7 -7 4 -15z m516 -31 c0 -8 -5 -12 -10 -9 -6 4 -8
11 -5 16 9 14 15 11 15 -7z m-870 -11 c0 -8 5 -11 10 -8 15 9 12 -4 -5 -21
-13 -14 -15 -14 -15 0 0 9 -4 16 -10 16 -5 0 -10 6 -10 13 0 8 7 14 15 14 8 0
15 -7 15 -14z m730 -113 c0 -5 -5 -10 -11 -10 -5 0 -7 5 -4 10 3 6 8 10 11 10
2 0 4 -4 4 -10z m-864 -25 c10 -26 -6 -38 -27 -19 -10 9 -16 21 -13 25 8 14
34 10 40 -6z"/>
<path d="M1430 1190 c0 -5 11 -17 24 -25 13 -9 27 -26 31 -38 3 -13 8 -17 11
-10 3 7 -5 26 -17 42 -23 31 -49 48 -49 31z"/>
<path d="M1361 647 c-8 -10 -7 -14 2 -14 8 0 14 6 14 14 0 7 -1 13 -2 13 -2 0
-8 -6 -14 -13z"/>
<path d="M1330 553 c0 -24 3 -33 9 -25 7 12 4 62 -5 62 -2 0 -4 -17 -4 -37z"/>
<path d="M1320 361 c0 -5 7 -14 15 -21 10 -9 15 -9 15 -1 0 6 -5 11 -11 11 -5
0 -7 5 -4 10 3 6 1 10 -4 10 -6 0 -11 -4 -11 -9z"/>
<path d="M980 325 c-13 -14 -21 -27 -18 -30 2 -3 14 9 27 25 26 37 23 39 -9 5z"/>
<path d="M808 1753 c7 -3 16 -2 19 1 4 3 -2 6 -13 5 -11 0 -14 -3 -6 -6z"/>
<path d="M755 1710 c-3 -6 1 -7 9 -4 18 7 21 14 7 14 -6 0 -13 -4 -16 -10z"/>
<path d="M700 1680 c-8 -5 -12 -12 -9 -15 4 -3 12 1 19 10 14 17 11 19 -10 5z"/>
<path d="M620 1640 c-13 -8 -12 -10 3 -10 9 0 17 5 17 10 0 12 -1 12 -20 0z"/>
<path d="M430 1565 c0 -9 6 -12 15 -9 8 4 15 10 15 15 0 5 -7 9 -15 9 -8 0
-15 -7 -15 -15z"/>
<path d="M225 1279 c-4 -6 -5 -12 -2 -15 2 -3 7 2 10 11 7 17 1 20 -8 4z"/>
<path d="M75 860 c3 -5 11 -10 16 -10 6 0 7 5 4 10 -3 6 -11 10 -16 10 -6 0
-7 -4 -4 -10z"/>
<path d="M550 360 c0 -5 5 -10 11 -10 5 0 7 5 4 10 -3 6 -8 10 -11 10 -2 0 -4
-4 -4 -10z"/>
</g>
</svg>
